# xmcd
#
# Track frame offsets:
#	187
#	11662
#	28527
#	43812
#	52520
#	66602
#	107425
#	125172
#	143620
#	156655
#	171482
#	188125
#
# Disc length: 2835 seconds
#
# Revision: 0
# Processed by: cddbd v1.4PL0 Copyright (c) Steve Scherf et al.
# Submitted via: AudioConverter v4.01 Copyright (c) Dennis Rebentrost
#
DISCID=a90b110c
DTITLE=Ella Fitzgerald - Ella in Hollywood
DYEAR=1965
DGENRE=Jazz
TTITLE0=This Could Be the Start of Something Big
TTITLE1=I've Got the World On a String
TTITLE2=You're Driving Me Crazy
TTITLE3=Just in Time
TTITLE4=It Might as Well Be Spring
TTITLE5=Take the "A" Train
TTITLE6=Stairway to the Stars
TTITLE7=Mr. Paganini
TTITLE8=Satin Doll
TTITLE9=Blue Moon
TTITLE10=Baby Won't You Please Come Home
TTITLE11=Air Mail Special
EXTD=
EXTT0=
EXTT1=
EXTT2=
EXTT3=
EXTT4=
EXTT5=
EXTT6=
EXTT7=
EXTT8=
EXTT9=
EXTT10=
EXTT11=
PLAYORDER=
